<?xml version="1.0" standalone="no"?>
<!DOCTYPE svg PUBLIC "-//W3C//DTD SVG 20010904//EN"
 "http://www.w3.org/TR/2001/REC-SVG-20010904/DTD/svg10.dtd">
<svg version="1.0" xmlns="http://www.w3.org/2000/svg"
 width="400.000000pt" height="400.000000pt" viewBox="0 0 400.000000 400.000000"
 preserveAspectRatio="xMidYMid meet">
<metadata>
Created by potrace 1.10, written by Peter Selinger 2001-2011
</metadata>
<g transform="translate(0.000000,400.000000) scale(0.100000,-0.100000)"
fill="#ff9900" stroke="none">
<path d="M1830 3963 c-68 -6 -257 -42 -330 -63 -339 -96 -665 -294 -892 -542
-462 -503 -623 -1165 -444 -1820 38 -138 135 -357 217 -487 69 -111 200 -270
299 -364 283 -268 594 -428 985 -509 97 -20 140 -22 355 -22 261 0 298 4 510
61 476 127 900 451 1155 884 87 149 172 367 214 549 61 263 55 609 -14 875
-39 151 -60 207 -137 365 -107 219 -209 361 -383 532 -266 262 -612 442 -990
514 -113 21 -174 27 -320 29 -99 2 -200 1 -225 -2z m313 -25 c-2 -5 22 -8 54
-9 93 -1 164 -9 220 -24 28 -8 61 -15 72 -15 12 0 21 -4 21 -10 0 -5 13 -10
29 -10 36 0 202 -58 217 -76 6 -7 25 -16 43 -19 29 -5 49 -13 91 -37 8 -4 25
-12 38 -18 12 -5 22 -13 22 -18 0 -4 20 -16 45 -27 25 -10 57 -28 70 -41 13
-12 33 -25 43 -28 10 -4 34 -21 54 -39 19 -17 37 -32 40 -32 2 0 26 -20 53
-44 28 -24 44 -40 36 -36 -10 6 -12 4 -7 -4 5 -7 14 -10 22 -7 8 3 14 2 14 -2
0 -9 54 -65 95 -99 14 -13 23 -27 20 -33 -4 -6 -1 -9 5 -8 7 2 17 -6 23 -16
12 -20 24 -34 66 -81 24 -26 24 -27 8 -55 -23 -39 -21 -48 4 -16 18 22 22 24
35 12 8 -8 14 -20 14 -26 0 -6 6 -13 14 -16 8 -3 15 -13 15 -22 1 -40 5 -50
17 -45 6 2 18 -10 25 -26 8 -17 17 -31 20 -31 3 0 11 -18 18 -40 6 -22 17 -40
23 -40 6 0 8 -3 5 -6 -4 -4 2 -23 11 -43 73 -146 102 -219 102 -264 0 -19 4
-26 12 -21 7 4 8 3 4 -5 -4 -7 -4 -20 0 -29 10 -23 14 -40 20 -87 3 -21 7 -42
10 -46 2 -4 7 -27 10 -51 3 -24 9 -62 14 -86 9 -48 5 -369 -5 -422 -3 -19 -7
-51 -9 -70 -1 -19 -6 -48 -10 -65 -4 -16 -19 -77 -33 -135 -29 -119 -39 -143
-55 -134 -6 4 -8 -1 -3 -15 4 -13 4 -34 0 -49 -5 -21 -8 -23 -16 -11 -8 10 -9
8 -5 -12 3 -14 -1 -34 -9 -46 -8 -11 -11 -24 -7 -28 4 -5 -1 -5 -11 -2 -11 4
-16 3 -12 -3 4 -6 3 -20 0 -31 -6 -17 -9 -19 -17 -8 -8 11 -9 10 -4 -3 5 -17
-76 -176 -98 -190 -6 -4 -7 -8 -3 -8 4 0 -4 -12 -18 -27 -14 -15 -25 -32 -25
-36 0 -5 -8 -6 -17 -3 -10 4 -14 4 -11 0 9 -8 -19 -64 -32 -64 -6 0 -10 -7
-10 -15 0 -8 -5 -15 -11 -15 -5 0 -7 -4 -4 -10 3 -6 -1 -7 -10 -4 -12 5 -14 2
-8 -12 6 -17 5 -17 -10 -5 -15 12 -17 12 -12 0 3 -8 -2 -24 -12 -35 -10 -11
-23 -29 -29 -40 -6 -10 -14 -18 -18 -16 -3 1 -19 -12 -34 -29 -66 -74 -129
-126 -146 -121 -6 2 -8 1 -4 -3 9 -9 -31 -47 -42 -40 -6 4 -10 2 -10 -4 0 -19
-92 -76 -119 -74 -17 2 -22 0 -12 -6 10 -7 8 -12 -10 -25 -13 -9 -29 -16 -36
-16 -7 0 -13 -3 -13 -7 0 -13 -61 -43 -72 -36 -6 3 -8 2 -5 -3 3 -6 -33 -25
-81 -44 -48 -19 -97 -41 -110 -48 -12 -8 -31 -12 -42 -9 -11 3 -18 1 -15 -4 3
-4 -20 -15 -52 -24 -32 -8 -73 -20 -91 -26 -17 -6 -42 -7 -55 -4 -18 5 -19 4
-7 -5 12 -9 10 -11 -12 -7 -16 2 -28 0 -28 -6 0 -5 -13 -7 -30 -5 -16 3 -30 2
-30 -2 0 -4 -6 -7 -12 -8 -7 0 -47 -5 -88 -10 -71 -10 -381 -8 -464 3 -21 2
-54 9 -72 15 -19 6 -38 9 -44 5 -5 -3 -10 -1 -10 5 0 6 -4 9 -9 5 -5 -3 -12
-1 -16 4 -3 6 -11 8 -18 5 -14 -5 -95 15 -162 40 -22 8 -48 15 -58 16 -11 0
-15 5 -11 11 4 7 0 9 -14 5 -11 -4 -26 -1 -33 6 -8 7 -18 13 -24 13 -26 2 -94
38 -88 48 4 6 0 8 -11 4 -9 -4 -34 3 -56 14 -38 20 -39 22 -23 35 16 13 15 13
-9 4 -26 -9 -32 -6 -30 11 1 4 -8 4 -20 1 -17 -4 -20 -2 -15 11 3 9 1 19 -5
23 -7 5 -8 2 -3 -6 5 -8 3 -11 -6 -8 -8 3 -13 9 -12 14 1 5 -9 10 -22 10 -23
2 -35 9 -79 49 -24 21 -30 25 -47 25 -5 0 -7 4 -4 10 3 5 0 10 -7 10 -19 0
-69 46 -60 55 4 5 1 5 -5 1 -13 -7 -117 90 -149 139 -9 14 -21 22 -28 18 -6
-4 -4 2 4 12 14 17 14 18 -9 6 -13 -7 -21 -9 -17 -3 3 5 -1 15 -10 22 -8 7
-13 19 -10 26 3 8 0 11 -9 8 -8 -3 -21 6 -32 23 -9 15 -35 50 -55 76 -21 27
-35 53 -32 58 3 5 2 8 -3 7 -4 -2 -9 1 -10 6 -1 5 -5 12 -10 15 -16 12 -64 81
-56 81 4 0 4 4 -2 8 -15 10 -35 49 -35 67 0 8 -4 15 -10 15 -5 0 -10 12 -10
26 0 14 -4 23 -10 19 -9 -6 -14 8 -11 28 1 4 -5 15 -14 23 -8 9 -15 24 -15 34
0 10 -5 22 -10 25 -6 4 -8 11 -4 16 3 6 -1 16 -9 22 -17 14 -27 60 -28 132 -1
42 -2 45 -8 20 l-7 -30 -11 35 c-11 33 -23 90 -29 135 -1 11 -3 22 -5 25 -1 3
-3 19 -4 35 -1 17 -7 59 -13 95 -6 36 -9 103 -7 150 3 59 1 80 -6 70 -8 -12
-9 -11 -5 5 2 11 8 68 12 128 3 59 10 110 15 113 5 3 6 16 3 30 -4 14 -2 44 4
67 42 170 56 217 63 217 5 0 6 7 3 15 -4 8 -1 15 5 15 6 0 8 6 5 14 -3 8 6 38
20 66 14 28 26 58 26 66 0 8 5 14 10 14 6 0 10 10 10 22 0 20 44 107 60 118
11 8 44 74 42 83 -1 4 3 14 10 21 23 24 52 61 53 66 0 3 3 4 7 3 3 -1 11 10
16 25 8 24 68 102 141 184 13 15 29 25 34 21 6 -3 7 -1 3 5 -4 7 11 24 35 42
23 16 39 30 35 30 -4 0 14 18 41 40 26 22 55 46 63 53 88 74 153 115 135 87
-3 -5 -1 -10 5 -10 7 0 10 7 6 15 -3 9 3 19 17 27 12 6 23 11 24 10 8 -5 32
11 28 18 -7 12 32 23 46 14 8 -4 9 -3 5 5 -8 13 59 47 84 42 8 -2 12 0 8 5
-15 14 185 100 255 109 12 1 34 7 48 13 15 6 30 8 33 5 3 -4 6 -2 6 4 0 5 33
15 73 22 39 7 89 17 109 22 21 5 75 12 120 15 46 3 85 8 88 11 8 8 228 -1 223
-9z"/>
<path d="M1859 3696 c-5 -5 -131 -27 -174 -30 -11 -1 -26 -5 -33 -9 -7 -5 -22
-5 -33 -2 -15 5 -19 4 -15 -4 7 -10 1 -12 -59 -16 -11 0 -38 -9 -60 -19 -22
-10 -44 -19 -50 -20 -5 -1 -16 -5 -22 -9 -7 -5 -18 -5 -25 -1 -7 4 -8 3 -4 -4
4 -7 -9 -16 -34 -23 -22 -7 -40 -16 -40 -22 0 -5 -8 -6 -17 -3 -10 4 -14 4
-10 0 4 -4 -5 -13 -19 -20 -20 -11 -31 -11 -47 -2 -19 10 -20 9 -10 -3 10 -13
2 -21 -52 -53 -36 -21 -67 -42 -70 -47 -3 -4 -13 -5 -22 -2 -11 4 -14 3 -9 -5
4 -7 4 -12 -1 -12 -4 0 -21 -11 -37 -25 -32 -27 -42 -30 -51 -15 -3 6 -11 10
-17 10 -5 0 0 -9 13 -20 13 -11 19 -19 14 -18 -15 4 -75 -48 -67 -57 4 -5 -1
-5 -11 -2 -10 4 -16 3 -12 -2 9 -16 -16 -25 -27 -10 -7 10 -8 8 -4 -7 4 -14
-2 -28 -21 -45 -14 -13 -23 -19 -19 -12 3 6 2 14 -3 18 -6 3 -8 -3 -6 -15 3
-14 -13 -38 -51 -77 -30 -31 -54 -61 -54 -65 0 -13 -77 -108 -82 -102 -3 2
-11 -4 -19 -13 -13 -17 -13 -17 5 -3 18 14 19 13 13 -3 -4 -10 -7 -21 -7 -23
0 -2 -7 -4 -15 -4 -8 0 -14 -6 -12 -12 1 -7 -3 -12 -10 -11 -7 2 -10 -3 -7
-10 6 -17 -28 -95 -52 -122 -11 -11 -20 -29 -21 -40 -1 -24 -44 -138 -54 -145
-4 -3 -10 -29 -14 -58 -4 -29 -11 -49 -17 -46 -5 3 -8 0 -7 -7 2 -8 0 -27 -4
-44 -3 -16 -9 -55 -12 -85 -3 -30 -8 -66 -10 -80 -2 -14 -7 -52 -10 -85 -3
-33 -11 -62 -17 -66 -6 -4 -6 -8 -1 -10 6 -2 13 -21 17 -42 4 -22 3 -37 -1
-34 -9 5 -2 -58 17 -173 6 -30 12 -68 14 -85 14 -96 18 -110 81 -285 9 -25 21
-49 26 -54 5 -6 9 -21 9 -34 0 -13 4 -21 9 -18 5 3 12 -6 15 -20 4 -14 19 -44
34 -67 15 -23 27 -46 27 -52 1 -9 22 -38 52 -70 9 -9 9 -15 0 -24 -9 -9 -8
-11 7 -5 15 6 18 4 13 -9 -4 -11 -2 -14 9 -10 12 5 19 -7 15 -30 0 -4 3 -6 7
-5 5 2 30 -24 57 -57 27 -33 59 -69 72 -81 12 -11 20 -24 16 -27 -3 -4 3 -10
13 -14 10 -4 24 -12 31 -17 7 -6 19 -17 28 -24 13 -11 14 -17 3 -30 -10 -14
-10 -15 2 -4 8 6 18 12 23 12 4 0 5 -6 1 -12 -4 -7 -4 -10 1 -6 4 4 26 -8 48
-27 22 -19 45 -35 49 -35 5 0 6 -5 3 -10 -4 -6 -3 -9 2 -8 9 3 86 -42 91 -54
2 -4 30 -20 63 -34 41 -19 56 -30 47 -35 -13 -9 -11 -10 27 -14 11 -1 52 -16
92 -34 39 -17 76 -31 82 -31 6 0 11 -4 11 -9 0 -5 10 -7 23 -4 18 4 20 3 7 -7
-13 -10 -13 -11 2 -7 9 3 29 2 45 -3 93 -29 136 -39 146 -33 6 3 7 1 3 -6 -5
-8 0 -10 18 -7 14 3 28 0 32 -5 3 -5 20 -9 37 -9 18 0 70 -4 117 -9 47 -5 88
-7 91 -5 3 2 63 4 132 5 70 1 124 5 122 9 -2 4 15 6 40 5 27 -1 42 2 38 8 -3
6 -1 7 6 3 6 -4 17 -3 24 2 7 6 30 13 52 16 41 5 142 33 160 44 9 6 112 44
160 59 11 4 26 13 34 20 7 8 22 11 32 8 14 -5 17 -2 13 8 -3 10 3 17 19 21 28
7 130 73 135 87 2 5 10 9 18 9 8 0 14 5 14 11 0 6 7 9 15 5 8 -3 14 0 12 6 -1
6 4 13 12 16 9 3 11 0 6 -8 -6 -9 -4 -11 4 -6 7 5 10 10 7 13 -6 7 31 37 58
47 10 3 17 9 14 11 -2 3 42 53 99 112 57 59 103 110 103 115 0 4 6 8 13 8 7 0
21 18 31 40 11 25 22 38 29 34 7 -4 9 -4 5 1 -4 4 2 21 14 37 13 19 23 26 28
19 4 -7 7 1 7 16 0 15 14 48 30 73 17 25 34 56 38 70 4 14 18 44 31 66 13 23
20 44 17 48 -3 3 0 6 7 6 7 0 11 3 8 6 -3 3 5 33 19 66 13 33 22 63 19 65 -3
3 1 17 8 32 8 14 17 50 21 79 4 28 11 52 17 52 6 0 8 8 6 18 -3 10 -1 45 4 78
9 62 12 313 4 374 -2 19 -9 63 -15 97 -6 34 -11 66 -10 70 1 4 -1 15 -4 23
-16 36 -36 114 -31 122 3 4 0 8 -7 8 -6 0 -9 8 -6 20 3 12 1 18 -5 14 -6 -4
-8 1 -3 15 4 13 2 21 -5 21 -7 0 -9 7 -6 16 4 10 2 13 -6 8 -8 -5 -9 -2 -5 9
3 10 3 17 -1 17 -4 0 -9 10 -9 22 -1 13 -7 24 -13 26 -14 5 -34 52 -31 71 1 7
-2 10 -7 7 -9 -5 -52 68 -52 89 0 4 -7 13 -16 20 -13 9 -14 16 -6 32 8 15 8
20 -3 20 -7 0 -11 -6 -8 -14 3 -7 3 -13 0 -13 -9 0 -62 95 -58 105 1 5 -1 7
-5 2 -4 -4 -15 3 -23 16 -9 13 -43 54 -76 91 -33 37 -59 72 -58 77 2 5 -3 8
-10 6 -6 -1 -11 4 -10 10 2 7 -1 12 -5 10 -16 -4 -91 64 -85 79 4 10 0 12 -12
7 -11 -4 -22 0 -29 9 -6 9 -33 29 -58 45 -26 17 -45 33 -41 37 6 6 -12 9 -21
4 -2 -2 -13 5 -23 15 -11 9 -23 14 -26 10 -4 -3 -7 -2 -7 4 0 6 -13 16 -30 23
-16 7 -30 15 -30 19 0 3 -32 19 -70 35 -39 17 -70 33 -70 38 0 4 -7 4 -17 1
-11 -4 -14 -3 -9 5 5 8 2 10 -8 6 -8 -3 -28 1 -43 9 -15 8 -47 21 -70 27 -24
7 -40 17 -36 23 3 6 1 7 -5 3 -6 -4 -47 1 -89 10 -43 9 -103 21 -133 26 -64
11 -392 22 -401 14z m302 -26 c439 -44 831 -247 1104 -572 100 -119 145 -187
214 -325 175 -351 215 -730 117 -1117 -71 -277 -208 -517 -418 -728 -142 -143
-224 -205 -392 -294 -651 -344 -1442 -217 -1951 314 -213 223 -351 488 -418
801 -19 91 -22 135 -21 316 0 189 3 222 26 328 15 65 34 132 42 149 9 17 16
37 16 45 0 26 64 168 118 263 165 288 425 529 722 669 168 79 363 134 520 146
47 4 87 9 89 11 8 7 129 4 232 -6z"/>
<path d="M1238 3403 c7 -3 16 -2 19 1 4 3 -2 6 -13 5 -11 0 -14 -3 -6 -6z"/>
<path d="M1730 3348 c-155 -46 -362 -132 -398 -165 -7 -7 -17 -13 -21 -13 -4
0 -17 -8 -29 -17 -54 -46 -63 -53 -70 -53 -5 0 -21 -13 -37 -30 -16 -16 -34
-30 -39 -31 -10 0 -128 -131 -151 -166 -5 -9 -20 -26 -31 -39 -26 -29 -102
-160 -133 -229 -13 -27 -27 -59 -32 -70 -10 -23 -42 -129 -57 -195 -52 -214
-34 -492 48 -721 85 -239 233 -442 435 -597 33 -26 62 -50 63 -54 2 -4 7 -8
12 -8 4 0 43 -20 86 -44 103 -58 216 -103 334 -132 52 -13 101 -24 107 -24 10
0 13 179 13 865 l0 866 -250 -1 c-138 -1 -248 -5 -245 -10 4 -7 200 -13 433
-13 40 0 42 -2 42 -29 0 -17 -4 -27 -10 -23 -5 3 -10 1 -10 -4 0 -6 5 -11 11
-11 14 0 6 -1587 -8 -1601 -13 -13 -195 30 -186 44 3 5 -4 6 -17 2 -15 -5 -20
-4 -16 4 5 7 1 9 -8 5 -9 -3 -16 -2 -16 4 0 6 -15 13 -32 17 -50 11 -173 74
-238 123 -70 53 -136 109 -169 145 -14 15 -45 47 -68 70 -41 40 -62 77 -25 44
16 -15 18 -15 18 2 0 13 -7 18 -22 16 -22 -2 -64 41 -68 69 -1 6 -11 21 -24
34 -14 14 -19 28 -15 39 3 10 3 15 -1 11 -11 -10 -34 14 -29 29 3 7 0 13 -6
13 -6 0 -8 7 -4 17 4 11 3 14 -5 9 -7 -4 -13 -2 -13 3 -2 17 -4 24 -19 56 -7
17 -19 45 -27 63 -15 34 -43 147 -63 247 -31 165 -10 458 42 575 9 19 18 49
21 65 6 33 73 182 92 205 7 8 22 32 32 52 23 42 52 82 105 141 21 23 38 45 38
50 0 4 7 7 15 7 8 0 14 3 13 8 -3 6 50 56 142 136 42 36 156 99 295 162 53 24
159 54 192 54 17 0 35 5 38 10 3 6 15 10 26 10 18 0 19 -9 19 -236 0 -206 -2
-235 -15 -230 -8 3 -15 2 -15 -2 0 -4 -59 -6 -132 -5 -73 1 -150 -2 -173 -7
-26 -5 29 -8 158 -9 l197 -1 0 255 0 255 -32 -1 c-18 -1 -49 -6 -68 -11z"/>
<path d="M2190 2474 l0 -889 245 2 245 1 0 -184 0 -185 -245 3 -245 3 0 -232
0 -233 23 0 c21 0 172 36 246 59 51 16 261 122 261 132 0 5 5 9 12 9 18 0 147
102 217 171 219 218 349 496 381 813 23 226 -21 467 -124 691 -81 175 -235
359 -407 485 -77 57 -82 60 -183 115 -80 44 -295 115 -368 122 l-58 6 0 -889z
m125 845 c39 -11 77 -21 85 -23 18 -3 40 -11 140 -52 25 -10 63 -29 85 -43 22
-14 46 -26 53 -27 20 -4 42 -25 36 -35 -3 -5 2 -6 11 -3 9 4 24 -1 35 -12 10
-11 41 -35 69 -54 58 -41 78 -74 59 -99 -9 -12 -7 -11 9 2 17 15 26 16 40 8
10 -6 14 -11 10 -11 -5 0 6 -12 23 -26 18 -16 29 -33 26 -41 -3 -8 -2 -12 3
-9 12 8 62 -59 53 -69 -4 -5 -1 -5 5 -1 8 5 17 -3 25 -21 7 -15 22 -38 32 -51
11 -12 21 -30 22 -39 2 -9 7 -19 12 -22 13 -8 62 -115 62 -135 0 -9 5 -16 11
-16 6 0 9 -9 6 -20 -3 -11 -2 -18 3 -15 11 7 60 -183 69 -265 1 -8 4 -75 8
-149 4 -103 2 -135 -8 -142 -10 -6 -10 -11 -1 -21 6 -8 9 -23 7 -34 -14 -69
-39 -170 -43 -178 -3 -5 -6 -21 -7 -35 -2 -14 -18 -58 -37 -98 -19 -40 -31
-70 -27 -68 4 3 5 -5 1 -17 -3 -12 -7 -17 -10 -10 -7 21 -20 13 -14 -10 4 -16
2 -19 -8 -13 -9 5 -11 4 -6 -3 7 -12 -43 -112 -56 -112 -5 0 -8 -5 -8 -11 0
-15 -39 -62 -136 -164 -63 -67 -85 -84 -100 -79 -14 4 -16 3 -5 -4 11 -8 10
-14 -7 -32 -13 -14 -26 -19 -34 -14 -7 4 -10 4 -6 -1 8 -8 -25 -36 -88 -77
-32 -21 -44 -24 -60 -15 -17 9 -17 9 -6 -5 11 -14 8 -18 -22 -29 -20 -7 -36
-17 -36 -22 0 -5 -7 -6 -16 -3 -8 3 -13 2 -10 -2 7 -12 -61 -35 -75 -26 -7 4
-9 3 -6 -3 4 -6 -13 -16 -41 -23 -26 -7 -65 -18 -87 -25 -22 -7 -62 -16 -90
-19 l-50 -7 1 203 1 203 214 2 c118 1 217 3 222 4 4 1 11 2 16 3 32 4 36 29
36 211 0 101 -3 181 -7 179 -3 -2 -9 0 -13 6 -4 6 -91 10 -234 10 l-229 0 -4
30 c-7 46 -10 1679 -3 1690 8 14 20 12 100 -11z"/>
<path d="M3201 2514 c0 -11 3 -14 6 -6 3 7 2 16 -1 19 -3 4 -6 -2 -5 -13z"/>
<path d="M2565 1160 c4 -6 11 -8 16 -5 14 9 11 15 -7 15 -8 0 -12 -5 -9 -10z"/>
<path d="M2590 930 c8 -5 20 -10 25 -10 6 0 3 5 -5 10 -8 5 -19 10 -25 10 -5
0 -3 -5 5 -10z"/>
<path d="M3280 2995 c0 -8 4 -15 10 -15 5 0 7 7 4 15 -4 8 -8 15 -10 15 -2 0
-4 -7 -4 -15z"/>
<path d="M792 2930 c0 -14 2 -19 5 -12 2 6 2 18 0 25 -3 6 -5 1 -5 -13z"/>
<path d="M1368 2853 c12 -2 32 -2 45 0 12 2 2 4 -23 4 -25 0 -35 -2 -22 -4z"/>
<path d="M1320 2816 c0 -9 5 -16 10 -16 6 0 10 4 10 9 0 6 -4 13 -10 16 -5 3
-10 -1 -10 -9z"/>
<path d="M801 2784 c0 -11 3 -14 6 -6 3 7 2 16 -1 19 -3 4 -6 -2 -5 -13z"/>
<path d="M1321 2678 c-1 -57 -4 -113 -8 -125 -3 -15 -1 -23 7 -23 9 0 9 -4 -1
-17 -12 -14 -12 -16 1 -11 12 4 16 30 18 133 2 71 -1 132 -6 137 -6 6 -10 -30
-11 -94z"/>
<path d="M3286 2557 c3 -10 9 -15 12 -12 3 3 0 11 -7 18 -10 9 -11 8 -5 -6z"/>
<path d="M641 2384 c0 -11 3 -14 6 -6 3 7 2 16 -1 19 -3 4 -6 -2 -5 -13z"/>
<path d="M472 2250 c0 -14 2 -19 5 -12 2 6 2 18 0 25 -3 6 -5 1 -5 -13z"/>
<path d="M471 1904 c0 -11 3 -14 6 -6 3 7 2 16 -1 19 -3 4 -6 -2 -5 -13z"/>
<path d="M3521 1694 c0 -11 3 -14 6 -6 3 7 2 16 -1 19 -3 4 -6 -2 -5 -13z"/>
<path d="M641 1664 c0 -11 3 -14 6 -6 3 7 2 16 -1 19 -3 4 -6 -2 -5 -13z"/>
<path d="M836 1585 c4 -8 8 -15 10 -15 2 0 4 7 4 15 0 8 -4 15 -10 15 -5 0 -7
-7 -4 -15z"/>
<path d="M3351 1514 c0 -11 3 -14 6 -6 3 7 2 16 -1 19 -3 4 -6 -2 -5 -13z"/>
<path d="M1275 800 c-3 -6 1 -7 9 -4 18 7 21 14 7 14 -6 0 -13 -4 -16 -10z"/>
<path d="M1498 803 c6 -2 18 -2 25 0 6 3 1 5 -13 5 -14 0 -19 -2 -12 -5z"/>
<path d="M1608 3673 c7 -3 16 -2 19 1 4 3 -2 6 -13 5 -11 0 -14 -3 -6 -6z"/>
<path d="M825 3220 c3 -5 8 -10 11 -10 2 0 4 5 4 10 0 6 -5 10 -11 10 -5 0 -7
-4 -4 -10z"/>
<path d="M745 3160 c3 -5 8 -10 11 -10 2 0 4 5 4 10 0 6 -5 10 -11 10 -5 0 -7
-4 -4 -10z"/>
<path d="M450 3046 c0 -2 7 -7 16 -10 8 -3 12 -2 9 4 -6 10 -25 14 -25 6z"/>
<path d="M270 2730 c0 -5 5 -10 11 -10 5 0 7 5 4 10 -3 6 -8 10 -11 10 -2 0
-4 -4 -4 -10z"/>
<path d="M411 2574 c0 -11 3 -14 6 -6 3 7 2 16 -1 19 -3 4 -6 -2 -5 -13z"/>
<path d="M3672 2380 c0 -14 2 -19 5 -12 2 6 2 18 0 25 -3 6 -5 1 -5 -13z"/>
<path d="M321 1904 c0 -11 3 -14 6 -6 3 7 2 16 -1 19 -3 4 -6 -2 -5 -13z"/>
<path d="M3260 971 c0 -6 4 -13 10 -16 6 -3 7 1 4 9 -7 18 -14 21 -14 7z"/>
<path d="M889 813 c-13 -16 -12 -17 4 -4 9 7 17 15 17 17 0 8 -8 3 -21 -13z"/>
<path d="M3165 820 c-3 -5 -1 -10 4 -10 6 0 11 5 11 10 0 6 -2 10 -4 10 -3 0
-8 -4 -11 -10z"/>
<path d="M3380 770 c0 -5 5 -10 11 -10 5 0 7 5 4 10 -3 6 -8 10 -11 10 -2 0
-4 -4 -4 -10z"/>
<path d="M2925 660 c3 -5 8 -10 11 -10 2 0 4 5 4 10 0 6 -5 10 -11 10 -5 0 -7
-4 -4 -10z"/>
<path d="M2378 423 c7 -3 16 -2 19 1 4 3 -2 6 -13 5 -11 0 -14 -3 -6 -6z"/>
<path d="M161 2714 c0 -11 3 -14 6 -6 3 7 2 16 -1 19 -3 4 -6 -2 -5 -13z"/>
<path d="M3351 524 c0 -11 3 -14 6 -6 3 7 2 16 -1 19 -3 4 -6 -2 -5 -13z"/>
<path d="M838 483 c7 -3 16 -2 19 1 4 3 -2 6 -13 5 -11 0 -14 -3 -6 -6z"/>
<path d="M3238 483 c7 -3 16 -2 19 1 4 3 -2 6 -13 5 -11 0 -14 -3 -6 -6z"/>
</g>
</svg>
